<?xml version="1.0" encoding="UTF-8" standalone="no"?>
<!-- Created with Inkscape (http://www.inkscape.org/) -->

<svg
   xmlns:dc="http://purl.org/dc/elements/1.1/"
   xmlns:cc="http://creativecommons.org/ns#"
   xmlns:rdf="http://www.w3.org/1999/02/22-rdf-syntax-ns#"
   xmlns:svg="http://www.w3.org/2000/svg"
   xmlns="http://www.w3.org/2000/svg"
   xmlns:sodipodi="http://sodipodi.sourceforge.net/DTD/sodipodi-0.dtd"
   xmlns:inkscape="http://www.inkscape.org/namespaces/inkscape"
   width="210mm"
   height="297mm"
   viewBox="0 0 210 297"
   version="1.1"
   id="svg8"
   inkscape:version="0.92.2 (5c3e80d, 2017-08-06)"
   sodipodi:docname="logo.svg">
  <defs
     id="defs2" />
  <sodipodi:namedview
     id="base"
     pagecolor="#ffffff"
     bordercolor="#666666"
     borderopacity="1.0"
     inkscape:pageopacity="0.0"
     inkscape:pageshadow="2"
     inkscape:zoom="1.4"
     inkscape:cx="322.49186"
     inkscape:cy="823.49294"
     inkscape:document-units="mm"
     inkscape:current-layer="layer1"
     showgrid="false"
     showguides="false"
     inkscape:measure-start="1294.29,851.429"
     inkscape:measure-end="465.714,282.857"
     inkscape:window-width="1366"
     inkscape:window-height="705"
     inkscape:window-x="-8"
     inkscape:window-y="-8"
     inkscape:window-maximized="1" />
  <metadata
     id="metadata5">
    <rdf:RDF>
      <cc:Work
         rdf:about="">
        <dc:format>image/svg+xml</dc:format>
        <dc:type
           rdf:resource="http://purl.org/dc/dcmitype/StillImage" />
        <dc:title></dc:title>
      </cc:Work>
    </rdf:RDF>
  </metadata>
  <g
     inkscape:label="Capa 1"
     inkscape:groupmode="layer"
     id="layer1">
    <flowRoot
       xml:space="preserve"
       id="flowRoot10"
       style="font-style:normal;font-weight:normal;font-size:40px;line-height:1.25;font-family:sans-serif;letter-spacing:0px;word-spacing:0px;fill:#0000ff;fill-opacity:1;stroke:none"
       transform="matrix(0.26458333,0,0,0.26458333,20.335118,50.951184)"><flowRegion
         id="flowRegion12"
         style="fill:#0000ff"><rect
           id="rect14"
           width="328.57144"
           height="71.428566"
           x="131.42857"
           y="139.66254"
           style="fill:#0000ff" /></flowRegion><flowPara
         id="flowPara16">Javier Carvajal</flowPara></flowRoot>    <path
       sodipodi:type="star"
       id="path20"
       sodipodi:sides="5"
       sodipodi:cx="95.249992"
       sodipodi:cy="80.041672"
       sodipodi:r1="16.178087"
       sodipodi:r2="8.0890436"
       sodipodi:arg1="0.9179497"
       sodipodi:arg2="1.5462682"
       inkscape:flatsided="false"
       inkscape:rounded="0"
       inkscape:randomized="0"
       d="m 105.07737,92.892862 -9.628988,-4.76458 -9.38377,5.23102 1.555862,-10.630051 -7.87474,-7.308021 10.590568,-1.805153 4.516912,-9.747626 4.989468,9.514405 10.666348,1.283657 -7.50691,7.685379 z"
       inkscape:transform-center-x="0.12261191"
       inkscape:transform-center-y="-1.4643909"
       style="fill:#ff0000;stroke-width:0.26458332"
       transform="matrix(1,0,0,1.0256335,-1.5875001,-9.0455026)" />
    <path
       style="fill:none;stroke:#000000;stroke-width:0.26458332px;stroke-linecap:butt;stroke-linejoin:miter;stroke-opacity:1"
       d="m 28.72619,119.35119 133.80357,-1.51191"
       id="path30"
       inkscape:connector-curvature="0" />
    <path
       style="fill:none;stroke:#000000;stroke-width:0.26458332px;stroke-linecap:butt;stroke-linejoin:miter;stroke-opacity:1"
       d="M 28.72619,119.35119 92.982141,33.172619 162.52976,117.83928"
       id="path32"
       inkscape:connector-curvature="0" />
    <path
       style="fill:#00ff00;stroke:#000000;stroke-width:0.26458332px;stroke-linecap:butt;stroke-linejoin:miter;stroke-opacity:1"
       d="M 41.010416,102.90923 149.11161,101.7753"
       id="path38"
       inkscape:connector-curvature="0" />
    <path
       style="fill:#ff0000;stroke-width:0.71428573"
       d="m 110.66965,449.83252 c 0.0986,-0.22469 10.14363,-13.76738 22.32221,-30.09487 l 22.14285,-29.68635 24.28572,-0.44734 c 13.35714,-0.24604 105.25308,-1.2717 204.21319,-2.27924 174.13039,-1.77288 179.96923,-1.78993 181.22328,-0.52922 0.71269,0.71647 11.72505,13.99911 24.47192,29.51696 l 23.17613,28.21429 -7.97083,0.15208 c -4.38396,0.0836 -38.82798,0.48806 -76.54226,0.89871 -77.43494,0.84315 -377.28087,4.1833 -401.60793,4.47374 -8.7415,0.10437 -15.81293,0.006 -15.71428,-0.21876 z"
       id="path40"
       inkscape:connector-curvature="0"
       transform="scale(0.26458333)" />
    <path
       style="fill:#ff0000;stroke-width:0.71428573"
       d="m 111.99817,448.65644 c 0.54653,-0.76984 10.43842,-14.11886 21.98198,-29.66449 l 20.9883,-28.26477 7.94028,-0.41709 c 4.36715,-0.22939 40.24384,-0.75074 79.72598,-1.15855 39.48215,-0.4078 99.10715,-1.04709 132.5,-1.42064 126.5377,-1.41549 187.0926,-1.68673 188.66524,-0.84508 1.50034,0.80295 47.75144,56.46692 47.29199,56.91669 -0.52498,0.51391 -54.33053,1.23691 -240.24294,3.22817 -106.46429,1.14032 -208.48287,2.28754 -226.70797,2.54938 -32.81671,0.47149 -33.12696,0.46258 -32.14286,-0.92362 z"
       id="path42"
       inkscape:connector-curvature="0"
       transform="scale(0.26458333)" />
    <path
       style="fill:#ffdd55;stroke-width:0.71428573"
       d="m 156.91972,387.90258 c 8.1e-4,-0.22362 191.26847,-256.78517 193.3287,-259.32615 l 1.34966,-1.66461 105.51348,128.45032 105.51349,128.45032 -9.10231,0.15017 c -5.00627,0.0826 -42.6916,0.4873 -83.74517,0.89935 -84.058,0.8437 -272.74117,2.78675 -296.96499,3.05814 -8.74146,0.0979 -15.89324,0.09 -15.89286,-0.0175 z m 306.49118,-11.7914 c 2.46696,-1.89408 2.79524,-3.87822 2.79524,-16.89462 v -12.9041 h -4.28571 -4.28572 v 2.14286 c 0,1.90476 0.2381,2.14286 2.14286,2.14286 h 2.14286 v 10.62683 c 0,11.97584 -0.28739,12.71832 -4.6489,12.01055 -2.37487,-0.38538 -2.49396,-0.30453 -2.49396,1.69324 0,2.05756 0.0722,2.09751 3.75,2.07523 2.0625,-0.0125 4.26,-0.41428 4.88333,-0.89285 z m -223.09762,-7.63662 c 2.49609,-1.13302 3.03572,-1.19372 3.03572,-0.34146 0,0.68294 0.75542,1.03651 2.21458,1.03651 h 2.2146 l -0.25031,-9.34477 -0.2503,-9.34476 -2.3327,-2.08381 c -2.05226,-1.83329 -2.86803,-2.08264 -6.78571,-2.07406 -6.53376,0.0143 -7.6673,0.4589 -7.6673,3.00712 0,1.74565 0.22842,2.046 1.25,1.64358 0.6875,-0.27082 2.89673,-0.6674 4.90942,-0.88129 3.09163,-0.32855 3.89512,-0.15319 5.17857,1.13026 2.19319,2.1932 1.88389,2.94773 -1.20835,2.94773 -4.07029,0 -9.92362,1.96437 -11.17441,3.75011 -1.58741,2.26635 -1.38338,6.40882 0.42914,8.71307 2.71776,3.45508 5.7169,3.98432 10.43705,1.84177 z m 65.35715,-0.40205 c 0.79082,-0.30641 1.25,-1.24341 1.25,-2.55075 0,-2.37441 -0.31844,-2.45739 -3.8184,-0.99501 -4.14449,1.73168 -7.39689,1.39461 -9.80797,-1.01649 -1.14836,-1.14835 -2.08792,-2.75549 -2.08792,-3.57143 0,-1.41192 0.37919,-1.48351 7.85715,-1.48351 h 7.85714 v -2.89261 c 0,-6.03204 -3.19439,-9.25025 -9.18177,-9.25025 -7.00937,0 -10.81823,4.02375 -10.81823,11.42857 0,4.331 1.62207,8.19727 4.128,9.83922 3.13347,2.05313 9.99703,2.28419 14.622,0.49226 z m 55.16614,0.71318 c 5.15024,-1.34147 6.08386,-2.06326 6.08386,-4.70354 0,-2.43587 -0.79047,-2.56994 -3.47032,-0.58864 -1.1829,0.87455 -3.55046,1.61339 -5.86393,1.82992 -6.89328,0.6452 -10.92402,-3.52191 -10.85389,-11.22114 0.088,-9.66673 6.8106,-13.88031 15.42283,-9.66673 2.10995,1.0323 4.0453,1.8769 4.30079,1.8769 0.25548,0 0.46452,-1.0901 0.46452,-2.42244 0,-2.17651 -0.30285,-2.54362 -2.98317,-3.61607 -4.22002,-1.68852 -11.17195,-1.56441 -14.75477,0.26341 -4.63155,2.36285 -7.26568,7.2842 -7.25808,13.56026 0.009,7.76383 3.4975,13.0831 9.66452,14.73822 4.58202,1.22974 4.32853,1.23112 9.24764,-0.0501 z m 20.90529,-0.31113 c 2.49608,-1.13302 3.03571,-1.19372 3.03571,-0.34146 0,0.68294 0.75542,1.03651 2.21459,1.03651 h 2.21459 l -0.25031,-9.27009 c -0.24301,-9.00032 -0.30724,-9.32701 -2.20704,-11.22622 -1.66944,-1.66893 -2.66577,-1.99482 -6.78571,-2.21952 -6.1688,-0.33646 -8.75755,0.59132 -8.75755,3.1386 0,1.61865 0.22834,1.8204 1.60715,1.42006 0.88392,-0.25665 3.25387,-0.65633 5.26656,-0.88817 3.11511,-0.35884 3.88537,-0.19559 5.17857,1.09761 2.19319,2.1932 1.88389,2.94773 -1.20835,2.94773 -4.07028,0 -9.92362,1.96437 -11.17441,3.75011 -2.36535,3.37702 -0.93537,9.01668 2.74687,10.83325 2.91679,1.43895 4.45185,1.38631 8.11933,-0.27841 z m 63.39285,0.32704 c 1.71767,-0.61296 2.9521,-0.74289 3.09524,-0.32579 0.13096,0.38159 1.1756,0.6938 2.32143,0.6938 h 2.08333 v -9.24589 c 0,-8.67414 -0.10375,-9.36651 -1.67795,-11.19662 -1.40615,-1.63474 -2.38572,-2.00194 -6.04697,-2.26677 -2.40296,-0.17382 -5.50503,-0.10292 -6.89348,0.15756 -2.23899,0.42004 -2.52445,0.72167 -2.52445,2.66739 0,1.93478 0.18975,2.13964 1.60714,1.73505 6.22744,-1.77756 11.25,-1.04356 11.25,1.64408 0,1.06559 -0.78059,1.38327 -4.30363,1.7515 -7.19371,0.7519 -10.12494,3.05867 -10.12494,7.96798 0,3.20965 1.27551,5.29575 3.9491,6.45874 2.83367,1.23263 3.70993,1.22768 7.26518,-0.0411 z m 37.85715,0 c 1.71766,-0.61296 2.9521,-0.74289 3.09523,-0.32579 0.13096,0.38159 1.1756,0.6938 2.32143,0.6938 h 2.08334 v -9.24589 c 0,-8.67414 -0.10376,-9.36651 -1.67796,-11.19662 -1.40614,-1.63474 -2.38571,-2.00194 -6.04697,-2.26677 -2.40296,-0.17382 -5.50502,-0.10292 -6.89347,0.15756 -2.239,0.42004 -2.52446,0.72167 -2.52446,2.66739 0,1.93713 0.18804,2.1392 1.60714,1.72716 0.88393,-0.25665 3.23307,-0.65418 5.22032,-0.8834 2.8342,-0.32691 3.87365,-0.15628 4.82143,0.79149 2.19073,2.19074 1.45672,3.0196 -3.09538,3.49538 -4.34314,0.45395 -7.67818,1.72877 -9.04276,3.4566 -2.61687,3.31348 -1.10686,9.24476 2.78394,10.93523 2.92118,1.2692 3.77635,1.26849 7.34817,-0.006 z m -263.29777,-0.79677 c 3.04438,-2.13237 3.65491,-5.0362 3.65491,-17.38371 v -11.45151 h -5.35714 c -5.2381,0 -5.35715,0.0397 -5.35715,1.78571 0,1.60714 0.28572,1.78571 2.85715,1.78571 h 2.85714 v 10.68916 c 0,10.20647 -0.0693,10.72627 -1.53561,11.51099 -0.8988,0.48102 -2.82419,0.64521 -4.64286,0.39593 -3.06712,-0.42039 -3.10725,-0.3984 -3.10725,1.7033 v 2.1292 h 4.48393 c 2.98938,0 5.03821,-0.38824 6.14688,-1.16478 z m 48.7053,-9.53985 c 2.32942,-5.69112 4.23532,-10.75362 4.23532,-11.25 0,-1.12865 -3.30633,-1.19503 -3.99532,-0.0802 -0.27953,0.45226 -1.85201,4.32118 -3.49442,8.59759 l -2.9862,7.77527 -3.22187,-8.41901 c -3.10946,-8.12528 -3.30052,-8.42682 -5.47632,-8.64284 -1.23994,-0.12311 -2.25444,-0.008 -2.25444,0.25548 0,0.26362 1.99983,5.4419 4.44407,11.50727 4.36018,10.81981 4.48247,11.02397 6.47895,10.81595 1.90419,-0.1984 2.30694,-0.87666 6.27023,-10.5595 z m 12.80675,-0.77139 v -11.47601 l -1.96428,0.22601 -1.96429,0.22602 -0.19907,10.32429 c -0.10949,5.67836 -0.0392,10.74086 0.15615,11.25 0.19538,0.50914 1.16889,0.92571 2.16336,0.92571 h 1.80813 z m 35,3.63534 c 0,-7.73475 0.0261,-7.85779 1.9332,-9.10715 1.157,-0.75797 3.16452,-1.23896 5,-1.19797 2.88307,0.0644 3.0668,-0.0487 3.0668,-1.88786 0,-1.138 -0.48018,-2.14062 -1.14792,-2.39686 -1.35256,-0.51903 -6.45871,0.73302 -7.07836,1.73564 -0.74566,1.20651 -1.77372,0.75375 -1.77372,-0.78114 0,-1.1888 -0.38223,-1.43203 -1.96428,-1.25 l -1.96429,0.22602 -0.19671,11.25 -0.19671,11.25 h 2.161 2.16099 z m 83.57143,-0.29605 v -8.13673 l 2.83702,-1.13515 c 1.6527,-0.66128 3.71702,-0.95916 4.94501,-0.71356 1.88978,0.37796 2.13215,0.21879 2.34154,-1.53774 0.17681,-1.48317 1.27902,0.62431 4.53532,8.67171 4.10873,10.15405 4.39717,10.64017 6.42857,10.8344 2.1138,0.2021 2.15308,0.13704 6.41254,-10.62318 2.35714,-5.9546 4.4005,-11.13153 4.5408,-11.50431 0.14029,-0.37278 -0.79108,-0.57449 -2.06973,-0.44825 -2.24835,0.22199 -2.42128,0.48021 -5.25848,7.85199 -1.61352,4.19235 -3.12072,7.80949 -3.34933,8.0381 -0.22861,0.2286 -1.83422,-3.2015 -3.56802,-7.62245 l -3.15238,-8.0381 -5.44287,0.10127 c -3.70112,0.0688 -6.0154,0.4764 -7.23197,1.27353 -1.69993,1.11383 -1.80802,1.09989 -2.16883,-0.27984 -0.25865,-0.98909 -0.97044,-1.45211 -2.23232,-1.45211 h -1.85258 v 11.42857 11.42858 h 2.14285 2.14286 z m 101.42857,-7.625 v -15.76173 l -1.96428,0.22601 -1.96429,0.22602 -0.1925,15.53571 -0.1925,15.53572 h 2.15679 2.15678 z M 281.92043,341.31246 c 0,-1.97278 -0.19842,-2.14285 -2.5,-2.14285 -2.30159,0 -2.5,0.17007 -2.5,2.14285 0,1.97279 0.19841,2.14286 2.5,2.14286 2.30158,0 2.5,-0.17007 2.5,-2.14286 z m 185,0 c 0,-1.97278 -0.19842,-2.14285 -2.5,-2.14285 -2.30159,0 -2.5,0.17007 -2.5,2.14285 0,1.97279 0.19841,2.14286 2.5,2.14286 2.30158,0 2.5,-0.17007 2.5,-2.14286 z m -128.92453,-23.87847 16.93201,-9.69218 18.13912,9.3375 c 10.78681,5.55275 18.13733,8.95446 18.13473,8.39247 -0.002,-0.51977 -1.70315,-9.80947 -3.77942,-20.64378 l -3.77503,-19.69875 14.18046,-14.84068 c 7.79926,-8.16237 14.06663,-14.95451 13.92749,-15.09365 -0.13912,-0.13914 -8.27495,-1.23732 -18.07961,-2.44041 -9.80466,-1.2031 -18.79109,-2.34068 -19.96984,-2.52796 -2.0043,-0.31845 -2.74502,-1.52007 -11.42857,-18.53967 -5.10696,-10.00954 -9.47518,-18.20645 -9.70714,-18.21536 -0.23197,-0.009 -4.24983,8.41193 -8.92857,18.71298 l -8.50682,18.72918 -19.605,3.43535 c -10.78275,1.88944 -19.76375,3.5941 -19.95778,3.78813 -0.19403,0.19402 4.12822,4.59618 9.605,9.78257 5.47678,5.18638 12.13026,11.52681 14.78551,14.08983 l 4.82774,4.66005 -2.86345,20.22382 c -1.57489,11.12311 -2.86344,20.39858 -2.86344,20.61214 0,0.69436 1.76591,-0.24506 18.93261,-10.07158 z"
       id="path44"
       inkscape:connector-curvature="0"
       transform="scale(0.26458333)" />
    <path
       style="fill:#ffdd55;stroke-width:0.71428573"
       d="m 233.88471,364.82668 c -1.64791,-0.95983 -1.59307,-3.69661 0.10487,-5.23323 0.76826,-0.69527 3.08769,-1.40498 5.35714,-1.63921 l 4.00228,-0.41307 v 2.87569 c 0,2.56842 -0.25958,2.99886 -2.42938,4.0285 -2.76136,1.31035 -5.21181,1.44317 -7.03491,0.38132 z"
       id="path46"
       inkscape:connector-curvature="0"
       transform="scale(0.26458333)" />
    <path
       style="fill:#ffdd55;stroke-width:0.71428573"
       d="m 291.20614,354.13714 c 0,-0.41072 0.78896,-1.53572 1.75325,-2.5 3.19262,-3.19263 9.67532,-1.81707 9.67532,2.05299 0,1.01601 -0.85086,1.19376 -5.71428,1.19376 -3.49897,0 -5.71429,-0.2895 -5.71429,-0.74675 z"
       id="path48"
       inkscape:connector-curvature="0"
       transform="scale(0.26458333)" />
    <path
       style="fill:#ffdd55;stroke-width:0.71428573"
       d=""
       id="path50"
       inkscape:connector-curvature="0"
       transform="scale(0.26458333)" />
    <path
       style="fill:#ffdd55;stroke-width:0.71428573"
       d="m 375.31329,364.82668 c -1.64792,-0.95983 -1.59308,-3.69661 0.10486,-5.23323 0.76826,-0.69527 3.08769,-1.40498 5.35714,-1.63921 l 4.00228,-0.41307 v 2.87569 c 0,2.56842 -0.25958,2.99886 -2.42938,4.0285 -2.76136,1.31035 -5.21181,1.44317 -7.0349,0.38132 z"
       id="path52"
       inkscape:connector-curvature="0"
       transform="scale(0.26458333)" />
    <path
       style="fill:#ffdd55;stroke-width:0.71428573"
       d="m 439.20614,364.74103 c -0.47143,-0.47142 -0.85714,-1.74583 -0.85714,-2.83201 0,-2.4002 1.58544,-3.37039 6.44902,-3.94641 l 3.55098,-0.42056 v 2.93829 c 0,2.53134 -0.29187,3.08923 -2.10739,4.02807 -2.525,1.30573 -5.85235,1.41574 -7.03547,0.23262 z"
       id="path54"
       inkscape:connector-curvature="0"
       transform="scale(0.26458333)" />
    <path
       style="fill:#ffdd55;stroke-width:0.71428573"
       d="m 477.06329,364.74103 c -0.47143,-0.47142 -0.85715,-1.74583 -0.85715,-2.83201 0,-2.4002 1.58544,-3.37039 6.44902,-3.94641 l 3.55098,-0.42056 v 2.93829 c 0,2.53134 -0.29187,3.08923 -2.10738,4.02807 -2.52501,1.30573 -5.85235,1.41574 -7.03547,0.23262 z"
       id="path56"
       inkscape:connector-curvature="0"
       transform="scale(0.26458333)" />
    <text
       xml:space="preserve"
       style="font-style:normal;font-weight:normal;font-size:10.58333302px;line-height:1.25;font-family:sans-serif;letter-spacing:0px;word-spacing:0px;fill:#000080;fill-opacity:1;stroke:none;stroke-width:0.26458332;"
       x="47.965172"
       y="114.2485"
       id="text60"><tspan
         sodipodi:role="line"
         id="tspan58"
         x="47.965172"
         y="114.2485"
         style="stroke-width:0.26458332;fill:#000080;">Desarrollador Web</tspan></text>
  </g>
</svg>
